# xmcd
#
# Track frame offsets:
#	150
#	27760
#	48320
#	82879
#	110483
#	138680
#	161021
#	192126
#	224926
#	247830
#	277124
#
# Disc length: 3948 seconds
#
# Revision: 0
# Processed by: cddbd v1.5.1PL0 Copyright (c) Steve Scherf et al.
# Submitted via: audiograbber 1.83.01
#
DISCID=9e0f6a0b
DTITLE=Feng Shui - CD 2
DYEAR=2003
DGENRE=Ambient
TTITLE0=Summer
TTITLE1=Fire
TTITLE2=A New Day
TTITLE3=The Sun
TTITLE4=Brightness
TTITLE5=Steam
TTITLE6=The Mountains
TTITLE7=Liveliness
TTITLE8=Soul
TTITLE9=Masculinity
TTITLE10=The Gods
EXTD=
EXTT0=
EXTT1=
EXTT2=
EXTT3=
EXTT4=
EXTT5=
EXTT6=
EXTT7=
EXTT8=
EXTT9=
EXTT10=
PLAYORDER=
